Coordinates
version=1
nRows=11
nColumns=36
inDegrees=yes

Units are S.I. units (second, meters, Newtons, ...)
If the header above contains a line with 'inDegrees', this indicates whether rotational values are in degrees (yes) or radians (no).

endheader
time	pelvis_tilt	pelvis_list	pelvis_rotation	pelvis_tx	pelvis_ty	pelvis_tz	hip_flexion_r	hip_adduction_r	hip_rotation_r	knee_angle_r	knee_angle_r_beta	ankle_angle_r	subtalar_angle_r	mtp_angle_r	hip_flexion_l	hip_adduction_l	hip_rotation_l	knee_angle_l	knee_angle_l_beta	ankle_angle_l	subtalar_angle_l	mtp_angle_l	lumbar_extension	lumbar_bending	lumbar_rotation	arm_flex_r	arm_add_r	arm_rot_r	elbow_flex_r	pro_sup_r	arm_flex_l	arm_add_l	arm_rot_l	elbow_flex_l	pro_sup_l
      1.74583330	     -5.42672800	      0.17058249	     -1.10889370	     -1.00662206	      1.37195599	     -0.08241051	      0.62054938	      1.76645545	    -17.59347273	      0.09021744	      0.00157459	     12.01157608	     -2.17844206	     -7.49999987	     -0.35957061	      1.69236474	    -22.09938784	      0.07457457	      0.00130157	     12.21382740	      5.58588880	     -7.49999987	     -0.69982428	     -0.74137706	      1.15309362	      6.09893863	     -3.52143366	     29.50005089	     26.81319832	     74.54037944	      6.17382936	     -8.94950580	     32.20500895	     28.13426296	     86.25943269
      1.75000000	     -5.40148252	      0.16246845	     -1.16768418	     -1.00583625	      1.37595587	     -0.08232719	      0.59977263	      1.82793060	    -17.62994300	      0.09110299	      0.00159005	     12.29707623	     -1.96050448	     -7.49999987	     -0.35884210	      1.63029345	    -22.09296502	      0.07493414	      0.00130785	     12.43911205	      6.03037432	     -7.49999987	     -0.76790918	     -0.77495842	      1.21678039	      6.08765885	     -3.53175558	     29.21221734	     26.85520555	     76.85492995	      6.13596543	     -8.99145510	     31.47644593	     28.25954043	     90.79552910
      1.75416670	     -5.38307543	      0.15103583	     -1.22714483	     -1.00754988	      1.37426665	     -0.08235623	      0.61736316	      1.90076055	    -17.51971754	      0.09169101	      0.00160031	     12.42961639	     -2.11098802	     -7.49999987	     -0.35167470	      1.58493948	    -21.96585805	      0.07515846	      0.00131176	     12.61631959	      6.14407748	     -7.49999987	     -0.88300883	     -0.78390113	      1.25146211	      6.16852312	     -3.56984461	     29.41385240	     26.94833119	     75.66522221	      6.16657352	     -9.09712253	     31.73629904	     28.45545815	     88.76819429
      1.75833330	     -5.40694819	      0.14963051	     -1.34275290	     -1.00740458	      1.37542202	     -0.08254394	      0.67093489	      1.92981314	    -17.37804970	      0.09252604	      0.00161488	     12.49846144	     -2.24490672	     -7.49999987	     -0.29781743	      1.56265700	    -21.78270389	      0.07520128	      0.00131251	     12.64736897	      6.28912788	     -7.49999987	     -0.89616401	     -0.77861355	      1.31870408	      6.23419955	     -3.58222849	     29.47545000	     26.90084533	     74.99241847	      6.16128076	     -9.11036073	     31.84477834	     28.46543686	     87.61538216
      1.76250000	     -5.40666645	      0.15063728	     -1.40713954	     -1.00828381	      1.37638600	     -0.08147382	      0.72220943	      1.97037242	    -17.26761238	      0.09265248	      0.00161709	     12.55279714	     -2.41203096	     -7.49999987	     -0.25752608	      1.54085734	    -21.46905566	      0.07548187	      0.00131741	     12.68831324	      6.23692179	     -7.49999987	     -0.99451626	     -0.80160382	      1.34057735	      6.30543522	     -3.56973713	     29.47248315	     26.90409878	     74.60543990	      6.18747903	     -9.16608962	     31.87139995	     28.52782805	     86.92557484
      1.76666670	     -5.43077752	      0.15588209	     -1.47545198	     -1.00745962	      1.37510438	     -0.08230465	      0.76909565	      1.98874471	    -17.25393935	      0.09295088	      0.00162230	     12.61331271	     -2.37907791	     -7.49999987	     -0.22269146	      1.53520639	    -21.52543652	      0.07589723	      0.00132466	     12.89405644	      6.72779712	     -7.49999987	     -0.99836724	     -0.80247762	      1.44882144	      6.32275513	     -3.68999690	     29.77581234	     26.99964086	     74.50079971	      6.24679257	     -9.26872958	     32.34058633	     28.63860962	     86.91316363
      1.77083330	     -5.45766388	      0.17844959	     -1.51409327	     -1.00761968	      1.37900098	     -0.08351263	      0.81112365	      1.93685542	    -17.32484317	      0.09361915	      0.00163396	     12.48648655	     -2.48891224	     -7.49999987	     -0.19381496	      1.56229505	    -21.37430653	      0.07631458	      0.00133194	     12.86924761	      6.73339948	     -7.49999987	     -1.01087078	     -0.78915267	      1.49185850	      6.33209028	     -3.71681788	     29.60089948	     26.86974518	     74.39736184	      6.23382861	     -9.17980778	     32.20614448	     28.56952028	     86.79641204
      1.77500000	     -5.40398786	      0.16212425	     -1.51822017	     -1.00755278	      1.37717123	     -0.08223198	      0.76231263	      1.97471112	    -17.21714324	      0.09391982	      0.00163921	     12.40046113	     -2.72809934	     -7.49999987	     -0.29555526	      1.53388338	    -21.23890021	      0.07696114	      0.00134323	     12.80864416	      6.39722475	     -7.49999987	     -1.14174684	     -0.78856588	      1.53372438	      6.32127028	     -3.70019148	     29.09946881	     26.92115453	     75.91075511	      6.25717287	     -9.18904371	     31.66600568	     28.61548399	     90.06884726
      1.77916670	     -5.37315783	      0.17211249	     -1.50612915	     -1.00800997	      1.37620616	     -0.08279785	      0.71675898	      1.95181029	    -17.30652520	      0.09485879	      0.00165560	     12.40324888	     -2.62951355	     -7.49999987	     -0.35220802	      1.53335066	    -21.23542783	      0.07739603	      0.00135082	     12.85710455	      6.32605841	     -7.49999987	     -1.22738390	     -0.76243781	      1.52307493	      6.37150129	     -3.72838733	     29.03922187	     26.87365932	     74.77353227	      6.23127109	     -9.17674374	     31.70528624	     28.70021851	     87.94453182
      1.78333330	     -5.33024106	      0.17234230	     -1.49182593	     -1.00788318	      1.37396623	     -0.08182318	      0.69458138	      1.95567666	    -17.24714114	      0.09531070	      0.00166349	     12.29645623	     -2.83275465	     -7.49999987	     -0.41217189	      1.51962308	    -21.21882928	      0.07788143	      0.00135929	     12.93104334	      6.44293096	     -7.49999987	     -1.32307138	     -0.75370998	      1.52790133	      6.41899731	     -3.79279625	     29.23192138	     26.96432017	     74.21969082	      6.28947988	     -9.26534556	     32.13837033	     28.79740547	     86.97356023
      1.78750000	     -5.30356433	      0.16403495	     -1.39068752	     -1.00765874	      1.37807489	     -0.08229151	      0.66613728	      1.95660214	    -17.21270158	      0.09589427	      0.00167367	     12.09768378	     -3.19817387	     -7.49999987	     -0.46264754	      1.50053059	    -20.86649977	      0.07837203	      0.00136785	     12.70755618	      5.72840042	     -7.49999987	     -1.38915975	     -0.71559458	      1.45779654	      6.47784962	     -3.75317160	     29.01789698	     26.77587168	     73.39727793	      6.31302183	     -9.21968842	     32.13319778	     28.63788536	     85.44773759
